# xmcd
#
# Track frame offsets:
#	300
#	10950
#	25158
#	31694
#	45351
#	62355
#	76116
#	88229
#	106869
#	120193
#	138105
#	152882
#	167495
#
# Disc length: 2448 seconds
#
# Revision: 0
# Processed by: cddbd v1.5.1PL2 Copyright (c) Steve Scherf et al.
# Submitted via: audiograbber 1.83.01
#
DISCID=86098c0d
DTITLE=Acousticatz - Border Line
DYEAR=2005
DGENRE=Country
TTITLE0=One Way Track
TTITLE1=Cattle Call
TTITLE2=Ode to Chet
TTITLE3=Blue Train
TTITLE4=When You Say Nothing At All
TTITLE5=Border Line
TTITLE6=Walking in Jerusalem
TTITLE7=Carry on Soldier
TTITLE8=Lord I Hope This Day Is Good
TTITLE9=Evening
TTITLE10=Louise
TTITLE11=In The Jailhouse Now
TTITLE12=Orange Blossom Special
EXTD=
EXTT0=
EXTT1=
EXTT2=
EXTT3=
EXTT4=
EXTT5=
EXTT6=
EXTT7=
EXTT8=
EXTT9=
EXTT10=
EXTT11=
EXTT12=
PLAYORDER=
